<svg width="37" height="40" viewBox="0 0 37 40" fill="none" xmlns="http://www.w3.org/2000/svg">
<path d="M8.64217 26.9947C8.68225 26.7614 8.90771 26.6078 9.13947 26.6559L17.8785 28.4694L16.7973 34.7628L13.7642 34.2417C10.3486 33.6549 8.05536 30.4103 8.64217 26.9947Z" fill="#5FA8A0" fill-opacity="0.6"/>
<path d="M18.5071 10.6216C18.6891 10.773 18.7094 11.045 18.5518 11.2217L12.6118 17.8832L7.70211 13.8001L9.66996 11.4339C11.886 8.7693 15.8425 8.40562 18.5071 10.6216Z" fill="#5FA8A0" fill-opacity="0.6"/>
<path d="M26.0728 28.6028C25.8399 28.6449 25.6185 28.4856 25.5844 28.2514L24.2996 19.4191L30.5833 18.2826L31.131 21.311C31.7478 24.7214 29.4832 27.986 26.0728 28.6028Z" fill="#5FA8A0" fill-opacity="0.6"/>
<path d="M12.036 20.7777C12.036 20.7777 7.53154 24.4915 7.15138 26.7043C6.77121 28.9172 8.2271 30.9343 8.2271 30.9343C4.57112 28.6976 2.98798 24.2013 4.43613 20.1675L5.10974 18.2912L12.036 20.7777Z" fill="#5FA8A0" fill-opacity="0.6"/>
<path d="M21.3572 28.4113C21.3572 28.4113 26.4605 29.9437 28.2881 29.2105C30.1156 28.4774 31.1694 27.6767 31.1694 27.6767C30.727 32.9158 25.894 36.6528 20.7121 35.7626L20.1119 35.6595L21.3572 28.4113Z" fill="#5FA8A0" fill-opacity="0.6"/>
<path d="M23.1709 17.1218C23.1709 17.1218 22.1909 13.4157 21.0597 11.4762C19.9286 9.53672 14.6529 7.62676 14.6529 7.62676L21.5216 6.424C23.068 6.15322 24.7215 6.27821 25.9801 7.2167C26.8348 7.85402 27.6668 9.20808 27.6668 9.20808L30.0751 14.5744L23.1709 17.1218Z" fill="#5FA8A0" fill-opacity="0.6"/>
<path d="M9.44158 16.9013L13.0263 21.5702L3.70584 18.2241L9.44158 16.9013Z" fill="#5FA8A0" fill-opacity="0.6"/>
<path d="M18.0049 31.5435L21.9803 27.2025L20.3036 36.9624L18.0049 31.5435Z" fill="#5FA8A0" fill-opacity="0.6"/>
<path d="M27.608 18.1839L21.8609 16.9116L31.1516 13.4837L27.608 18.1839Z" fill="#5FA8A0" fill-opacity="0.6"/>
</svg>
